# xmcd CD database file
#
# Track frame offsets:
#	150
#	23887
#	62755
#	93145
#	118467
#	144457
#	177240
#	195948
#	223746
#	259685
#	288808
#	319988
#	354028
#
# Disc length: 5040 seconds
#
# Revision: 0
# Processed by: cddbd v1.5.2PL0 Copyright (c) Steve Scherf et al.
# Submitted via: CDex 1.70beta2
#
DISCID=bc13ae0d
DTITLE=Schiller - Sonne (Special Chill Out Version) Disc 1
DYEAR=2013
DGENRE=New Age
TTITLE0=Sonne (Instrumental Chill Out Version)
TTITLE1=Mitternacht (Chill Out Version)
TTITLE2=Energy (Chill Out Version) (Mit Tim Brownlow)
TTITLE3=Lichtermeer (Chill Out Version)
TTITLE4=Yellow
TTITLE5=Dancing In The Dark (Chill Out Version) (Mit Ameerah)
TTITLE6=Orange
TTITLE7=Velvet Aeroplane (Chill Out Version) (Mit Kate Havnevik)
TTITLE8=Morgenrot (Chill Out Version)
TTITLE9=Berlin - Moskau (Chill Out Version)
TTITLE10=Epic Shores (Chill Out Version) (Mit Meredith Call)
TTITLE11=Das Dritte Auge (Chill Out Version)
TTITLE12=Sonne (Chill Out Version) (Mit Unheilig)
EXTD=YEAR: 2013
EXTT0=
EXTT1=
EXTT2=
EXTT3=
EXTT4=
EXTT5=
EXTT6=
EXTT7=
EXTT8=
EXTT9=
EXTT10=
EXTT11=
EXTT12=
PLAYORDER=
